<svg width="45" height="45" viewBox="0 0 45 45" fill="none" xmlns="http://www.w3.org/2000/svg">
<rect width="44" height="44" rx="22" transform="matrix(1 0 -7.95948e-05 1 0.802734 0.0253906)" fill="black"/>
<path fill-rule="evenodd" clip-rule="evenodd" d="M18.6366 14.526C16.7956 14.526 15.3031 16.0184 15.303 17.8594L15.3023 26.1927C15.3022 28.0337 16.7944 29.526 18.6354 29.526H26.9687C28.8097 29.526 30.3022 28.0337 30.3023 26.1927L30.303 17.8594C30.3031 16.0184 28.8109 14.526 26.9699 14.526H18.6366ZM13.6363 17.8594C13.6365 15.098 15.8753 12.8594 18.6367 12.8594H26.9701C29.7315 12.8594 31.9699 15.098 31.9697 17.8594L31.969 26.1927C31.9688 28.9541 29.73 31.1927 26.9686 31.1927H18.6353C15.8738 31.1927 13.6354 28.9541 13.6357 26.1927L13.6363 17.8594Z" fill="white"/>
<path fill-rule="evenodd" clip-rule="evenodd" d="M23.2051 19.516C22.685 19.4388 22.1537 19.5277 21.687 19.7699C21.2202 20.0121 20.8417 20.3953 20.6052 20.865C20.3688 21.3347 20.2864 21.867 20.3699 22.3861C20.4534 22.9053 20.6985 23.3849 21.0703 23.7567C21.4421 24.1285 21.9217 24.3736 22.4408 24.4572C22.96 24.5407 23.4923 24.4584 23.962 24.222C24.4317 23.9856 24.815 23.6071 25.0572 23.1404C25.2994 22.6736 25.3883 22.1424 25.3112 21.6222C25.2326 21.0917 24.9854 20.6004 24.6061 20.2212C24.2269 19.8419 23.7357 19.5947 23.2051 19.516ZM20.9195 18.2905C21.6974 17.8869 22.5828 17.7388 23.4497 17.8673C24.334 17.9985 25.1526 18.4105 25.7847 19.0427C26.4168 19.6748 26.8288 20.4935 26.9599 21.3778C27.0883 22.2447 26.9402 23.1301 26.5365 23.908C26.1328 24.6859 25.4941 25.3167 24.7112 25.7108C23.9283 26.1048 23.0412 26.2419 22.1759 26.1027C21.3107 25.9635 20.5114 25.5549 19.8917 24.9352C19.272 24.3155 18.8636 23.5162 18.7244 22.6509C18.5852 21.7856 18.7225 20.8985 19.1166 20.1156C19.5106 19.3328 20.1415 18.6942 20.9195 18.2905Z" fill="white"/>
<path fill-rule="evenodd" clip-rule="evenodd" d="M26.5527 17.4427C26.5527 16.9825 26.9258 16.6094 27.3861 16.6094H27.3944C27.8546 16.6094 28.2277 16.9825 28.2277 17.4427C28.2276 17.9029 27.8545 18.276 27.3943 18.276H27.3859C26.9257 18.276 26.5526 17.9029 26.5527 17.4427Z" fill="white"/>
</svg>
