<svg width="59" height="59" viewBox="0 0 59 59" fill="none" xmlns="http://www.w3.org/2000/svg">
<rect width="59" height="59" rx="29.5" transform="matrix(1 0 -7.95948e-05 1 0 0)" fill="black"/>
<path d="M39.4963 34.4201L39.4961 37.4201C39.4972 37.6986 39.4401 37.9743 39.3285 38.2294C39.2169 38.4846 39.0533 38.7137 38.848 38.902C38.6428 39.0902 38.4005 39.2336 38.1367 39.3228C37.8728 39.412 37.5933 39.4452 37.3159 39.4201C34.2388 39.0857 31.283 38.0342 28.6861 36.3501C26.2701 34.8148 24.2218 32.7663 22.6866 30.3501C20.9968 27.7413 19.9453 24.7711 19.6173 21.6801C19.5924 21.4036 19.6252 21.1249 19.7139 20.8617C19.8025 20.5986 19.945 20.3568 20.1322 20.1517C20.3194 19.9467 20.5473 19.7828 20.8013 19.6706C21.0553 19.5584 21.3298 19.5004 21.6075 19.5001H24.6075C25.0928 19.4953 25.5633 19.6672 25.9312 19.9836C26.2992 20.3001 26.5395 20.7395 26.6074 21.2201C26.7339 22.1802 26.9687 23.1228 27.3071 24.0301C27.4416 24.388 27.4707 24.777 27.3909 25.151C27.3112 25.5249 27.1258 25.8682 26.857 26.1401L25.5869 27.4101C27.0102 29.9136 29.083 31.9865 31.5864 33.4101L32.8565 32.1401C33.1284 31.8712 33.4717 31.6859 33.8456 31.6062C34.2196 31.5264 34.6086 31.5556 34.9665 31.6901C35.8738 32.0286 36.8164 32.2635 37.7765 32.3901C38.2622 32.4586 38.7058 32.7033 39.0229 33.0776C39.34 33.4519 39.5085 33.9297 39.4963 34.4201Z" stroke="white" stroke-width="2" stroke-linecap="round" stroke-linejoin="round"/>
</svg>
