<svg width="45" height="45" viewBox="0 0 45 45" fill="none" xmlns="http://www.w3.org/2000/svg">
<rect width="44" height="44" rx="22" transform="matrix(1 0 -7.95948e-05 1 0.201172 0.0253906)" fill="black"/>
<path d="M29.421 15.1232L14.6456 20.8207C13.6372 21.2257 13.643 21.7882 14.4605 22.0391L18.2537 23.2224L27.0308 17.6849C27.4458 17.4324 27.825 17.5682 27.5133 17.8449L20.402 24.2624H20.4003L20.402 24.2632L20.14 28.1732C20.5233 28.1732 20.6925 27.9974 20.9075 27.7899L22.7502 25.9982L26.5824 28.8291C27.2891 29.2182 27.7966 29.0182 27.9725 28.1749L30.4893 16.3182C30.7468 15.2857 30.0952 14.8182 29.421 15.1232Z" fill="white"/>
</svg>
