<svg width="45" height="45" viewBox="0 0 45 45" fill="none" xmlns="http://www.w3.org/2000/svg">
<rect width="44" height="44" rx="22" transform="matrix(1 0 -7.95948e-05 1 0.402344 0.0253906)" fill="black"/>
<path fill-rule="evenodd" clip-rule="evenodd" d="M22.4029 14.526C18.2607 14.526 14.9026 17.8839 14.9023 22.026C14.9019 26.1682 18.2595 29.526 22.4017 29.526C26.5438 29.526 29.9019 26.1682 29.9023 22.026C29.9026 17.8839 26.545 14.526 22.4029 14.526ZM13.2356 22.026C13.236 16.9634 17.3404 12.8594 22.403 12.8594C27.4656 12.8594 31.5693 16.9634 31.5689 22.026C31.5685 27.0887 27.4641 31.1927 22.4015 31.1927C17.3389 31.1927 13.2352 27.0887 13.2356 22.026Z" fill="white"/>
<path fill-rule="evenodd" clip-rule="evenodd" d="M13.2343 22.0247C13.2343 21.5645 13.6075 21.1914 14.0677 21.1914H30.7344C31.1946 21.1914 31.5677 21.5645 31.5676 22.0247C31.5676 22.485 31.1945 22.8581 30.7342 22.8581H14.0676C13.6073 22.8581 13.2343 22.485 13.2343 22.0247Z" fill="white"/>
<path fill-rule="evenodd" clip-rule="evenodd" d="M22.403 12.8594C22.6371 12.8594 22.8604 12.9578 23.0183 13.1307C25.2387 15.5618 26.5004 18.7168 26.5688 22.0087C26.569 22.0203 26.569 22.0318 26.5687 22.0434C26.4999 25.3353 25.2377 28.4903 23.0168 30.9214C22.8589 31.0942 22.6356 31.1927 22.4015 31.1927C22.1674 31.1927 21.9441 31.0942 21.7863 30.9214C19.5658 28.4903 18.3041 25.3353 18.2358 22.0434C18.2355 22.0318 18.2355 22.0203 18.2358 22.0087C18.3046 18.7168 19.5669 15.5618 21.7877 13.1307C21.9456 12.9578 22.1689 12.8594 22.403 12.8594ZM19.9025 22.026C19.9594 24.5884 20.8404 27.0553 22.4017 29.067C23.9633 27.0553 24.8448 24.5884 24.9021 22.026C24.8452 19.4637 23.9641 16.9967 22.4028 14.985C20.8412 16.9967 19.9598 19.4637 19.9025 22.026Z" fill="white"/>
</svg>
