<svg width="59" height="59" viewBox="0 0 59 59" fill="none" xmlns="http://www.w3.org/2000/svg">
<rect width="59" height="59" rx="29.5" transform="matrix(1 0 -7.95948e-05 1 0 0)" fill="black"/>
<path d="M19.6245 35.6873L19.5144 36.0894L18.168 41.0073L23.2343 39.6777L23.6182 39.5769L23.9667 39.7668C25.6784 40.6997 27.605 41.192 29.5662 41.1933H29.5712C36.0269 41.1933 41.2862 35.9364 41.2895 29.4759L19.6245 35.6873ZM19.6245 35.6873L19.4164 35.3261M19.6245 35.6873L19.4164 35.3261M19.4164 35.3261C18.3923 33.5491 17.8532 31.5342 17.8533 29.4678L19.4164 35.3261ZM33.6488 35.5237L33.5032 34.5343C33.035 34.6033 32.5114 34.6231 31.9514 34.445C31.5036 34.3017 30.9468 34.1176 30.2311 33.8092C27.5464 32.649 25.698 30.0251 25.2792 29.4305C25.247 29.3848 25.2233 29.3511 25.2082 29.331L25.2046 29.326C25.1289 29.2248 24.8509 28.8526 24.5904 28.3393C24.3183 27.8032 24.1095 27.1981 24.1095 26.6412C24.1096 25.5749 24.5958 25.0551 24.8949 24.7352C24.9171 24.7114 24.9383 24.6887 24.9582 24.667C24.9964 24.6256 25.0279 24.6094 25.0464 24.602C25.0624 24.5957 25.0733 24.5942 25.0749 24.5939C25.2236 24.5939 25.3673 24.5955 25.4968 24.5992C25.5694 24.7743 25.6693 25.0174 25.7779 25.2816C26.0096 25.8454 26.2809 26.5055 26.4111 26.8068C26.4016 26.8255 26.3941 26.8397 26.3872 26.8519C26.3709 26.8811 26.3553 26.9056 26.3217 26.9447C26.2259 27.0569 26.155 27.1441 26.0971 27.2155C26.0185 27.3123 25.9637 27.3799 25.9022 27.4407L25.9018 27.4411C25.8985 27.4444 25.8943 27.4484 25.8895 27.4531C25.8175 27.5232 25.5886 27.7457 25.4691 28.0662C25.3056 28.5042 25.3897 28.94 25.6012 29.3033C25.8036 29.6511 26.5042 30.7993 27.5675 31.7479L27.5677 31.7481C28.7257 32.7805 29.7847 33.2328 30.1959 33.4085C30.2618 33.4366 30.3111 33.4577 30.3415 33.4728C30.5653 33.5847 30.9039 33.7185 31.3014 33.6708C31.7407 33.6181 32.0413 33.3734 32.2304 33.1569L31.4773 32.4991L32.2304 33.1569C32.3632 33.0049 32.7771 32.5221 33.079 32.1325C33.1147 32.1489 33.1534 32.1667 33.1947 32.1859C33.3807 32.2724 33.6082 32.3809 33.8396 32.4926C34.3027 32.7162 34.7678 32.9458 34.9214 33.023C34.9501 33.0374 34.9784 33.0514 35.0055 33.0647C34.9816 33.2347 34.9342 33.4469 34.852 33.6774L34.852 33.6772C34.852 33.6772 34.8459 33.693 34.8247 33.724C34.8022 33.7569 34.7678 33.7996 34.7183 33.8502C34.6174 33.9532 34.4779 34.0643 34.3115 34.1709C33.9545 34.3996 33.6194 34.5171 33.502 34.5345L33.6488 35.5237ZM33.6488 35.5237C34.2594 35.433 35.5288 34.7558 35.7938 34.0135C36.0587 33.2712 36.0588 32.6351 35.9795 32.5019L31.6471 35.3976C32.4078 35.6398 33.1005 35.6044 33.6488 35.5237ZM37.8611 21.1868C35.6477 18.9706 32.7092 17.7514 29.5731 17.75L37.8611 21.1868ZM37.8611 21.1868C40.0745 23.403 41.2897 26.3432 41.2895 29.4755L37.8611 21.1868ZM29.5662 41.0471H29.5669H29.5712C35.9493 41.0471 41.1383 35.856 41.1419 29.4764C41.1437 26.3861 39.9392 23.4772 37.7578 21.291L37.7573 21.2905C35.574 19.1055 32.6665 17.8992 29.5778 17.8977H29.5773C23.1941 17.8977 18.0046 23.0868 18.001 29.4669L18.001 29.4674C18.0008 31.6517 18.6111 33.7812 19.7699 35.6246C19.7699 35.6247 19.77 35.6247 19.77 35.6248C19.7701 35.625 19.7702 35.6251 19.7703 35.6253L19.7872 35.6522L18.836 39.1288L18.3789 40.7994L20.0543 40.3598L23.6496 39.4165L23.6749 39.4315L23.6757 39.432C25.4548 40.4893 27.4913 41.0455 29.5662 41.0471ZM26.4841 26.9681C26.4841 26.9681 26.4837 26.9673 26.4831 26.9658C26.4838 26.9674 26.4842 26.9681 26.4841 26.9681ZM35.3703 32.1293C35.0516 31.9693 33.4905 31.2014 33.1987 31.0952L35.3703 32.1293ZM17.8533 29.4674C17.8566 23.0071 23.1157 17.7502 29.5726 17.75L17.8533 29.4674Z" fill="#484848" stroke="white" stroke-width="2"/>
</svg>
