<svg viewBox="0 0 24 24" fill="none" xmlns="http://www.w3.org/2000/svg">
  <path fill="#FFC107" d="M16.6763 2.26758C17.3934 1.77478 18.359 1.98116 18.8325 2.72754C18.9245 2.87266 18.9934 3.03224 19.0366 3.2002L21.9468 14.502C22.1692 15.3659 21.6762 16.2539 20.8462 16.4854C20.6847 16.5304 20.517 16.5485 20.3501 16.5381L12.6821 16.0586L11.3462 16.4307L13.0571 20.9893C13.1969 21.362 13.0198 21.7821 12.6616 21.9277C12.6377 21.9374 12.6131 21.9462 12.5884 21.9531C12.1247 22.0823 11.6302 21.9392 11.2964 21.5801L7.31592 17.2988C6.82056 17.1406 6.41109 16.7302 6.26709 16.1709L4.76416 16.5898C3.9342 16.8212 3.08136 16.3091 2.85889 15.4453L2.05322 12.3164C1.83097 11.4526 2.32383 10.5645 3.15381 10.333L4.65674 9.91406C4.43438 9.05019 4.92729 8.16214 5.75732 7.93066L10.2661 6.67383L16.6763 2.26758Z"/>
</svg>
